<?xml version="1.0" encoding="utf-8"?>
<!-- Generator: Adobe Illustrator 22.1.0, SVG Export Plug-In . SVG Version: 6.00 Build 0)  -->
<svg version="1.1" id="Layer_1" xmlns="http://www.w3.org/2000/svg" xmlns:xlink="http://www.w3.org/1999/xlink" x="0px" y="0px"
	 viewBox="0 0 16 16" style="enable-background:new 0 0 16 16;" xml:space="preserve">
<path d="M4,7.5c0.1-0.2,0-0.3,0-0.3C3.7,6.8,3.3,7,3.3,7L0.4,8.1c-0.2,0-0.3,0.1-0.3,0.1c-0.1,0.2,0,0.4,0,0.4s0,0.2,0.1,0.3
	c0,0,0,0.1,0.3,0.2l2.8,1.1c0,0,0.4,0.2,0.7-0.2c0,0,0.1-0.2,0-0.3c0,0-0.1-0.2-0.3-0.3l-2-0.8l2-0.8C3.9,7.7,4,7.5,4,7.5z M16,8.2
	c0,0,0-0.1-0.3-0.2l-2.9-1c0,0-0.4-0.2-0.7,0.2c0,0-0.1,0.2,0,0.3c0,0,0.1,0.2,0.3,0.3l2,0.8l-2,0.8c-0.2,0.1-0.3,0.3-0.3,0.3
	c-0.1,0.2,0,0.3,0,0.3c0.3,0.4,0.7,0.2,0.7,0.2l2.8-1.1C15.9,9,16,8.9,16,8.9c0.1-0.2,0-0.3,0-0.3S16.1,8.4,16,8.2z M9.1,7.3
	L8.9,6.9L7.8,6.1L7,6L6.8,6.2L6.4,5.9V5.6L6.1,5.5l0.1-0.4L6,5L5.6,5.2L5.2,4.9l0.2-0.5L3.8,3.7l0.8,1.6c0,0,0,0.1,0.1,0.1l1.2,0.5
	l0.8,0.8l-0.4,1l0.5,1l0.6,0.2v2.2l0.4,1.2l0.7,0.2l-0.2-1.6l0.9-1.5l0.6-0.1l0.7-1.5C10.5,7.8,9.1,7.3,9.1,7.3z"/>
</svg>
